# xmcd
#
# Track frame offsets:
#	150
#	32230
#	63325
#	99687
#	126907
#	154015
#	207260
#	238875
#
# Disc length: 3564 seconds
#
# Revision: 1
# Processed by: cddbd v1.5.1PL2 Copyright (c) Steve Scherf et al.
# Submitted via: CDmax 2.0
#
DISCID=6f0dea08
DTITLE=Eric Clapton - Congratulations! (disc1)
DYEAR=1988
DGENRE=Blues
TTITLE0=Crossroads
TTITLE1=White Room
TTITLE2=I Shot the Sheriff
TTITLE3=Wonderful Tonight
TTITLE4=Run
TTITLE5=Same Old Blues
TTITLE6=Tearing Us Apart
TTITLE7=Holly Mother
EXTD=Eric Clapton\tguitar, vocals\nMark Knopfler\tguitar\nNathan East\tbass\n
EXTD=Ray Cooper\tpercussion\nGreg Phillinganes\tkeyboards\nSteve Ferrone\tdru
EXTD=ms\nTessa Niles\tbackground vocals\nKatie Kassoon\tbackground vocals\n\n
EXTD=Recorded live at NEC, Birmingham, UK on January 22nd, 1988\n\nFirst Sho
EXTD=w of 25th Anniversary Tour
EXTT0=
EXTT1=
EXTT2=
EXTT3=
EXTT4=
EXTT5=
EXTT6=
EXTT7=
PLAYORDER=
